<svg width="218" height="62" viewBox="0 0 218 62" fill="none" xmlns="http://www.w3.org/2000/svg">
<circle cx="31.28" cy="30.6442" r="30.593" fill="white"/>
<path d="M39.2922 23.0223H39.2793C36.6759 23.0223 34.5654 25.1328 34.5654 27.7362V44.4722C34.5654 47.0756 36.6759 49.186 39.2793 49.186H39.2922C41.8956 49.186 44.0061 47.0756 44.0061 44.4722V27.7362C44.0061 25.1328 41.8956 23.0223 39.2922 23.0223Z" fill="#A9F58D"/>
<path d="M22.6992 11.9825H22.6863C20.0829 11.9825 17.9724 14.093 17.9724 16.6964V44.1662C17.9724 46.7696 20.0829 48.8801 22.6863 48.8801H22.6992C25.3026 48.8801 27.4131 46.7696 27.4131 44.1662V16.6964C27.4131 14.093 25.3026 11.9825 22.6992 11.9825Z" fill="url(#paint0_linear_343_2686)"/>
<path fill-rule="evenodd" clip-rule="evenodd" d="M42.6604 24.3105L42.6861 24.3362C44.52 26.1606 44.5277 29.1264 42.7032 30.9603C42.6975 30.966 42.6918 30.9717 42.6861 30.9774L25.9715 47.606C24.1396 49.4285 21.1794 49.4285 19.3474 47.606L19.3217 47.5804C17.4878 45.7559 17.4801 42.7902 19.3046 40.9563C19.3103 40.9506 19.316 40.9449 19.3217 40.9392L36.0363 24.3105C37.8682 22.488 40.8284 22.488 42.6604 24.3105Z" fill="url(#paint1_linear_343_2686)"/>
<path d="M89.5928 12.2885C92.1995 12.2885 94.3127 14.398 94.3127 17.0002L94.3124 33.1421L102.746 24.8043C102.836 24.7153 102.929 24.6306 103.024 24.5503C103.892 23.6078 105.137 23.017 106.521 23.017C109.143 23.017 111.268 25.1389 111.268 27.7563V44.4285C111.268 47.046 109.143 49.1678 106.521 49.1678C103.899 49.1678 101.773 47.046 101.773 44.4285L101.773 39.042L93.1549 47.563C93.0829 47.6342 93.0091 47.7027 92.9337 47.7684C92.0735 48.6327 90.882 49.1678 89.5652 49.1678C86.9432 49.1678 84.8176 47.046 84.8176 44.4285V17.0002C84.8176 14.398 86.9308 12.2885 89.5375 12.2885H89.5928Z" fill="white"/>
<path fill-rule="evenodd" clip-rule="evenodd" d="M152.055 44.937C152.055 48.2176 150.134 49.7334 147.422 49.7334C144.71 49.7334 142.789 48.2176 142.789 44.937V20.751C142.789 17.4705 144.71 15.9546 147.422 15.9546C150.134 15.9546 152.055 17.4705 152.055 20.7737V28.6924H152.236C153.411 25.638 156.078 23.828 159.65 23.828C165.955 23.828 169.436 28.4209 169.436 36.6789C169.436 44.9143 165.978 49.5298 159.763 49.5298C156.101 49.5298 153.389 47.7651 152.236 44.8465H152.055V44.937ZM133.703 48.3533C131.216 55.4801 127.532 58.3309 120.797 58.3309C116.932 58.3309 114.853 56.8376 114.853 54.1C114.853 52.29 116.118 51.204 118.13 51.204C118.288 51.204 118.452 51.2097 118.616 51.2153L118.616 51.2154C118.78 51.221 118.944 51.2267 119.102 51.2267C119.893 51.2267 120.978 51.1362 121.633 50.5932L121.746 50.5027L114.401 30.7965C114.039 29.8462 113.836 28.7602 113.836 27.9457C113.836 25.4796 115.938 23.6244 118.695 23.6244C121.226 23.6244 122.447 24.6878 123.193 27.4932L127.216 42.5161H127.397L131.42 27.4027C132.121 24.8009 133.522 23.6244 135.94 23.6244C138.585 23.6244 140.438 25.3439 140.438 27.7647C140.438 28.5566 140.212 29.7331 139.896 30.6155L133.703 48.3533ZM155.988 42.3804C153.547 42.3804 152.033 40.231 152.01 36.7015C152.033 33.2173 153.57 30.9775 155.988 30.9775C158.384 30.9775 159.943 33.2173 159.943 36.6789C159.943 40.1631 158.406 42.3804 155.988 42.3804ZM195.654 45.299C193.982 48.0818 189.778 49.8013 184.692 49.8013C176.511 49.8013 171.651 44.937 171.651 36.8147C171.651 28.6471 176.556 23.5565 184.399 23.5565C192.128 23.5565 197.123 28.4887 197.123 35.2083C197.123 37.4255 195.858 38.6473 193.552 38.6473H180.579V39.2355C180.579 41.679 182.342 43.4437 184.828 43.4437C186.84 43.4437 188.286 42.8329 190.049 41.2717C191.021 40.412 191.744 40.1179 192.874 40.1179C194.66 40.1179 196.265 41.2717 196.265 43.2627C196.265 43.9641 196.061 44.6428 195.654 45.299ZM180.714 33.6246C180.895 31.4752 182.5 29.9367 184.602 29.9367C186.772 29.9367 188.331 31.3847 188.49 33.6246H180.714ZM209.215 44.937C209.215 48.1044 207.43 49.7334 204.582 49.7334C201.734 49.7334 199.949 48.1044 199.949 44.937V28.2625C199.949 25.2534 201.757 23.6244 204.469 23.6244C207.068 23.6244 208.854 25.2534 208.854 28.2851V29.1901H209.035C209.622 25.5928 211.272 23.828 213.758 23.828C214.685 23.828 215.453 24.0543 216.019 24.4841C216.945 25.1629 217.42 26.362 217.42 28.0815C217.42 29.5521 216.99 30.6607 216.132 31.43C215.273 32.1992 213.984 32.6064 212.289 32.6743C209.803 32.7648 209.215 33.5793 209.215 36.3169V44.937Z" fill="white"/>
<path fill-rule="evenodd" clip-rule="evenodd" d="M143.823 16.8471C144.733 15.971 145.997 15.5721 147.422 15.5721C148.847 15.5721 150.112 15.9711 151.021 16.8504C151.934 17.7323 152.438 19.0475 152.438 20.7736V27.374C153.86 24.8834 156.413 23.4456 159.649 23.4456C162.905 23.4456 165.472 24.6373 167.212 26.9252C168.94 29.1971 169.818 32.5041 169.818 36.6789C169.818 40.8422 168.946 44.1482 167.236 46.4224C165.514 48.7129 162.976 49.9122 159.762 49.9122C156.404 49.9122 153.772 48.4713 152.366 46.0033C152.198 47.2043 151.734 48.1541 151.021 48.8408C150.111 49.7169 148.847 50.1158 147.422 50.1158C145.997 50.1158 144.733 49.7169 143.823 48.8408C142.91 47.962 142.406 46.6525 142.406 44.9369V20.751C142.406 19.0354 142.91 17.7259 143.823 16.8471ZM144.353 17.398C143.627 18.0973 143.171 19.186 143.171 20.751V44.9369C143.171 46.5019 143.627 47.5907 144.353 48.2899C145.082 48.9919 146.134 49.351 147.422 49.351C148.709 49.351 149.761 48.9919 150.49 48.2899C151.216 47.5907 151.673 46.5019 151.673 44.9369V44.464H152.496L152.592 44.706C153.679 47.4588 156.236 49.1474 159.762 49.1474C162.765 49.1474 165.063 48.0389 166.624 45.9628C168.197 43.8704 169.054 40.751 169.054 36.6789C169.054 32.5956 168.192 29.4772 166.603 27.3882C165.026 25.3151 162.699 24.2104 159.649 24.2104C156.226 24.2104 153.708 25.9326 152.593 28.8297L152.499 29.0747H151.673V20.7736C151.673 19.1966 151.216 18.1022 150.49 17.4004C149.761 16.696 148.709 16.337 147.422 16.337C146.134 16.337 145.082 16.696 144.353 17.398ZM174.808 26.8576C177.099 24.4764 180.392 23.1741 184.398 23.1741C188.345 23.1741 191.625 24.4345 193.921 26.5833C196.218 28.7334 197.506 31.7499 197.506 35.2083C197.506 36.389 197.167 37.3605 196.468 38.0346C195.77 38.7065 194.769 39.0296 193.552 39.0296H180.961V39.2355C180.961 41.4654 182.551 43.0613 184.828 43.0613C185.792 43.0613 186.605 42.9154 187.384 42.5902C188.167 42.2637 188.934 41.7486 189.795 40.9854C190.299 40.5396 190.76 40.2214 191.258 40.0183C191.759 39.8139 192.274 39.7354 192.874 39.7354C194.815 39.7354 196.647 41.0087 196.647 43.2627C196.647 44.0415 196.42 44.7885 195.981 45.4981C194.204 48.4505 189.829 50.1837 184.692 50.1837C180.526 50.1837 177.159 48.9436 174.833 46.6246C172.508 44.3055 171.269 40.9522 171.269 36.8146C171.269 32.6545 172.519 29.2372 174.808 26.8576ZM175.359 27.3879C173.235 29.5955 172.033 32.8072 172.033 36.8146C172.033 40.7994 173.224 43.9394 175.373 46.083C177.523 48.2267 180.677 49.4189 184.692 49.4189C189.725 49.4189 193.757 47.7139 195.326 45.1019L195.329 45.0974C195.702 44.4955 195.882 43.8858 195.882 43.2627C195.882 41.5348 194.504 40.5003 192.874 40.5003C192.344 40.5003 191.933 40.5689 191.547 40.7264C191.157 40.8853 190.77 41.1442 190.302 41.5581C189.401 42.356 188.563 42.9268 187.679 43.296C186.791 43.6666 185.875 43.8261 184.828 43.8261C182.133 43.8261 180.196 41.8925 180.196 39.2355V38.2648H193.552C194.64 38.2648 195.425 37.9771 195.937 37.4838C196.447 36.9927 196.741 36.2448 196.741 35.2083C196.741 31.9471 195.531 29.1376 193.398 27.1417C191.264 25.1446 188.181 23.9389 184.398 23.9389C180.562 23.9389 177.481 25.1819 175.359 27.3879ZM113.453 27.9457C113.453 25.2267 115.771 23.242 118.695 23.242C120.013 23.242 121.054 23.5193 121.863 24.2172C122.663 24.9074 123.181 25.9623 123.562 27.3946C123.562 27.3947 123.562 27.3945 123.562 27.3946L127.305 41.3723L131.05 27.3043C131.412 25.9593 131.969 24.9319 132.79 24.2446C133.617 23.5529 134.667 23.242 135.94 23.242C137.346 23.242 138.567 23.6998 139.44 24.5057C140.315 25.3134 140.82 26.4519 140.82 27.7647C140.82 28.6082 140.584 29.8277 140.256 30.743C140.256 30.7435 140.256 30.744 140.255 30.7445L134.064 48.4792C134.064 48.4793 134.064 48.4792 134.064 48.4792C132.808 52.0784 131.233 54.6503 129.077 56.3171C126.916 57.9883 124.219 58.7132 120.797 58.7132C118.825 58.7132 117.247 58.3338 116.153 57.5533C115.039 56.7586 114.47 55.579 114.47 54.1C114.47 53.1003 114.823 52.2657 115.485 51.6857C116.14 51.1111 117.058 50.8216 118.13 50.8216C118.295 50.8216 118.464 50.8274 118.625 50.833L118.628 50.8331C118.793 50.8388 118.951 50.8442 119.102 50.8442C119.485 50.8442 119.926 50.822 120.343 50.7385C120.713 50.6645 121.04 50.5469 121.29 50.3737L114.043 30.9324C114.043 30.932 114.043 30.9329 114.043 30.9324C113.667 29.9445 113.453 28.8118 113.453 27.9457ZM118.695 24.0068C116.104 24.0068 114.218 25.7325 114.218 27.9457C114.218 28.7082 114.411 29.7481 114.758 30.6604L114.759 30.6629L122.201 50.6282L121.875 50.8898C121.479 51.2166 120.975 51.392 120.493 51.4885C120.006 51.586 119.509 51.609 119.102 51.609C118.937 51.609 118.768 51.6032 118.606 51.5976L118.603 51.5975C118.438 51.5918 118.28 51.5864 118.13 51.5864C117.19 51.5864 116.469 51.8399 115.989 52.2608C115.515 52.6763 115.235 53.2896 115.235 54.1C115.235 55.3586 115.706 56.2944 116.598 56.9307C117.509 57.5813 118.904 57.9484 120.797 57.9484C124.11 57.9484 126.623 57.248 128.609 55.7121C130.601 54.1718 132.111 51.755 133.341 48.2273L139.534 30.4894L139.535 30.4863C139.84 29.637 140.055 28.5045 140.055 27.7647C140.055 26.6567 139.634 25.7249 138.921 25.0678C138.207 24.4087 137.179 24.0068 135.94 24.0068C134.795 24.0068 133.935 24.2841 133.281 24.8311C132.622 25.3825 132.128 26.2452 131.789 27.502C131.789 27.5021 131.789 27.502 131.789 27.502L127.691 42.8985H126.922L122.823 27.5921C122.458 26.2192 121.993 25.3391 121.364 24.7963C120.743 24.2612 119.908 24.0068 118.695 24.0068ZM200.923 24.5433C201.801 23.6734 203.037 23.242 204.469 23.242C205.849 23.242 207.052 23.6761 207.909 24.55C208.549 25.2024 208.973 26.0758 209.147 27.1387C209.462 26.2341 209.879 25.487 210.399 24.9051C211.273 23.9278 212.414 23.4456 213.758 23.4456C214.743 23.4456 215.599 23.6858 216.247 24.1775C217.31 24.958 217.802 26.3018 217.802 28.0815C217.802 29.6299 217.347 30.8546 216.387 31.7148C215.435 32.5672 214.044 32.9867 212.304 33.0564C211.077 33.1011 210.46 33.3255 210.115 33.7457C209.753 34.1865 209.598 34.9436 209.598 36.3169V44.9369C209.598 46.5915 209.13 47.8993 208.237 48.7932C207.344 49.6869 206.077 50.1158 204.582 50.1158C203.086 50.1158 201.819 49.6869 200.927 48.7932C200.034 47.8993 199.566 46.5915 199.566 44.9369V28.2625C199.566 26.6805 200.043 25.4142 200.923 24.5433ZM201.461 25.0867C200.758 25.7826 200.331 26.8353 200.331 28.2625V44.9369C200.331 46.4498 200.756 47.5402 201.468 48.2527C202.18 48.9654 203.23 49.351 204.582 49.351C205.934 49.351 206.984 48.9654 207.696 48.2527C208.408 47.5402 208.833 46.4498 208.833 44.9369V36.3169C208.833 34.9526 208.971 33.9336 209.524 33.2602C210.094 32.5662 211.016 32.338 212.275 32.2921C213.925 32.226 215.11 31.831 215.876 31.1451C216.634 30.4667 217.037 29.4743 217.037 28.0815C217.037 26.4235 216.581 25.3699 215.792 24.7926L215.787 24.7885C215.305 24.422 214.625 24.2104 213.758 24.2104C212.617 24.2104 211.689 24.6106 210.969 25.4149C210.239 26.2316 209.699 27.4931 209.412 29.2517L209.359 29.5725H208.471V28.2851C208.471 26.8444 208.048 25.7843 207.363 25.0856C206.678 24.3872 205.688 24.0068 204.469 24.0068C203.189 24.0068 202.164 24.3899 201.461 25.0867ZM180.333 33.5925C180.53 31.257 182.289 29.5543 184.602 29.5543C185.774 29.5543 186.803 29.9469 187.562 30.6624C188.321 31.3778 188.786 32.3935 188.871 33.5976L188.9 34.0069H180.298L180.333 33.5925ZM181.151 33.2421H188.061C187.924 32.3961 187.559 31.7105 187.038 31.2189C186.435 30.6505 185.599 30.3191 184.602 30.3191C182.847 30.3191 181.472 31.5026 181.151 33.2421ZM152.786 32.3152C153.541 31.2247 154.644 30.595 155.988 30.595C157.321 30.595 158.423 31.2252 159.178 32.3119C159.925 33.3873 160.326 34.8964 160.326 36.6789C160.326 38.4711 159.931 39.9807 159.187 41.0541C158.433 42.1401 157.331 42.7627 155.988 42.7627C154.639 42.7627 153.535 42.1615 152.779 41.0841C152.033 40.021 151.639 38.5162 151.628 36.704V36.699C151.639 34.9073 152.04 33.3932 152.786 32.3152ZM152.392 36.7015C152.404 35.0102 152.783 33.6631 153.415 32.7506C154.039 31.8501 154.914 31.3598 155.988 31.3598C157.05 31.3598 157.926 31.8496 158.55 32.7482C159.182 33.6582 159.561 34.9998 159.561 36.6789C159.561 38.3708 159.187 39.712 158.558 40.6182C157.938 41.5119 157.064 41.9979 155.988 41.9979C154.896 41.9979 154.022 41.5245 153.405 40.6448C152.778 39.7513 152.404 38.4175 152.392 36.7015Z" fill="white"/>
<defs>
<linearGradient id="paint0_linear_343_2686" x1="22.6927" y1="17.8433" x2="22.6927" y2="37.294" gradientUnits="userSpaceOnUse">
<stop stop-color="#A9F58D"/>
<stop offset="1" stop-color="#60DBCC"/>
</linearGradient>
<linearGradient id="paint1_linear_343_2686" x1="36.1647" y1="30.932" x2="24.1228" y2="41.3544" gradientUnits="userSpaceOnUse">
<stop stop-color="#A9F58D"/>
<stop offset="1" stop-color="#6EF1E1"/>
</linearGradient>
</defs>
</svg>
