<svg width="238" height="184" viewBox="0 0 238 184" fill="none" xmlns="http://www.w3.org/2000/svg">
<g id="Property 1=Black">
<g id="Group 7">
<g id="Oval" filter="url(#filter0_d_0_8564)">
<circle cx="51.28" cy="51.4583" r="30.593" fill="white"/>
</g>
<g id="logo-blue 1">
<g id="Symbols">
<g id="Group-3">
<path id="Rectangle" d="M59.2922 43.8362H59.2793C56.6759 43.8362 54.5654 45.9467 54.5654 48.5501V65.2861C54.5654 67.8895 56.6759 69.9999 59.2793 69.9999H59.2922C61.8956 69.9999 64.0061 67.8895 64.0061 65.2861V48.5501C64.0061 45.9467 61.8956 43.8362 59.2922 43.8362Z" fill="#A9F58D"/>
<path id="Rectangle_2" d="M42.6992 32.7965H42.6863C40.0829 32.7965 37.9724 34.907 37.9724 37.5104V64.9801C37.9724 67.5835 40.0829 69.694 42.6863 69.694H42.6992C45.3026 69.694 47.4131 67.5835 47.4131 64.9801V37.5104C47.4131 34.907 45.3026 32.7965 42.6992 32.7965Z" fill="url(#paint0_linear_0_8564)"/>
<path id="Rectangle_3" fill-rule="evenodd" clip-rule="evenodd" d="M62.6604 45.1245L62.6861 45.1501C64.52 46.9746 64.5277 49.9403 62.7032 51.7743C62.6975 51.78 62.6918 51.7857 62.6861 51.7913L45.9715 68.42C44.1396 70.2425 41.1794 70.2425 39.3474 68.42L39.3217 68.3944C37.4878 66.5699 37.4801 63.6042 39.3046 61.7702C39.3103 61.7645 39.316 61.7588 39.3217 61.7532L56.0363 45.1245C57.8682 43.302 60.8284 43.302 62.6604 45.1245Z" fill="url(#paint1_linear_0_8564)"/>
</g>
</g>
</g>
</g>
<g id="Group">
<g id="Group 4">
<g id="Group_2">
<path id="Combined-Shape" d="M109.593 33.1025C112.2 33.1025 114.313 35.212 114.313 37.8142L114.312 53.9561L122.746 45.6183C122.836 45.5293 122.929 45.4446 123.024 45.3643C123.892 44.4219 125.137 43.831 126.521 43.831C129.143 43.831 131.268 45.9529 131.268 48.5703V65.2425C131.268 67.86 129.143 69.9818 126.521 69.9818C123.899 69.9818 121.773 67.86 121.773 65.2425L121.773 59.856L113.155 68.377C113.083 68.4482 113.009 68.5167 112.934 68.5824C112.074 69.4467 110.882 69.9818 109.565 69.9818C106.943 69.9818 104.818 67.86 104.818 65.2425V37.8142C104.818 35.212 106.931 33.1025 109.538 33.1025H109.593Z" fill="#06131A"/>
</g>
<path id="yber" fill-rule="evenodd" clip-rule="evenodd" d="M172.055 65.751C172.055 69.0316 170.134 70.5475 167.422 70.5475C164.71 70.5475 162.789 69.0316 162.789 65.751V41.5651C162.789 38.2845 164.71 36.7686 167.422 36.7686C170.134 36.7686 172.055 38.2845 172.055 41.5877V49.5064H172.236C173.411 46.452 176.078 44.642 179.65 44.642C185.956 44.642 189.436 49.2349 189.436 57.4929C189.436 65.7284 185.978 70.3438 179.763 70.3438C176.101 70.3438 173.389 68.5791 172.236 65.6605H172.055V65.751ZM153.703 69.1673C151.216 76.2942 147.532 79.1449 140.797 79.1449C136.932 79.1449 134.853 77.6516 134.853 74.914C134.853 73.1041 136.118 72.0181 138.13 72.0181C138.288 72.0181 138.452 72.0237 138.616 72.0294L138.616 72.0294C138.78 72.035 138.944 72.0407 139.102 72.0407C139.893 72.0407 140.978 71.9502 141.633 71.4072L141.746 71.3167L134.401 51.6105C134.039 50.6602 133.836 49.5743 133.836 48.7598C133.836 46.2937 135.938 44.4384 138.695 44.4384C141.226 44.4384 142.447 45.5018 143.193 48.3073L147.216 63.3301H147.397L151.42 48.2168C152.121 45.6149 153.522 44.4384 155.94 44.4384C158.585 44.4384 160.438 46.1579 160.438 48.5788C160.438 49.3706 160.212 50.5471 159.896 51.4295L153.703 69.1673ZM175.988 63.1944C173.547 63.1944 172.033 61.045 172.01 57.5156C172.033 54.0313 173.57 51.7915 175.988 51.7915C178.384 51.7915 179.943 54.0313 179.943 57.4929C179.943 60.9772 178.406 63.1944 175.988 63.1944ZM215.654 66.113C213.982 68.8958 209.778 70.6153 204.692 70.6153C196.511 70.6153 191.651 65.751 191.651 57.6287C191.651 49.4611 196.556 44.3706 204.399 44.3706C212.128 44.3706 217.123 49.3028 217.123 56.0223C217.123 58.2396 215.858 59.4613 213.552 59.4613H200.579V60.0495C200.579 62.493 202.342 64.2578 204.828 64.2578C206.84 64.2578 208.286 63.6469 210.049 62.0858C211.021 61.226 211.744 60.9319 212.874 60.9319C214.66 60.9319 216.265 62.0858 216.265 64.0768C216.265 64.7781 216.061 65.4569 215.654 66.113ZM200.714 54.4386C200.895 52.2892 202.5 50.7507 204.602 50.7507C206.772 50.7507 208.331 52.1987 208.49 54.4386H200.714ZM229.215 65.751C229.215 68.9185 227.43 70.5475 224.582 70.5475C221.734 70.5475 219.949 68.9185 219.949 65.751V49.0765C219.949 46.0674 221.757 44.4384 224.469 44.4384C227.068 44.4384 228.854 46.0674 228.854 49.0991V50.0041H229.035C229.622 46.4068 231.272 44.642 233.758 44.642C234.685 44.642 235.453 44.8683 236.019 45.2982C236.945 45.9769 237.42 47.176 237.42 48.8955C237.42 50.3661 236.99 51.4747 236.132 52.244C235.273 53.0132 233.984 53.4205 232.289 53.4883C229.803 53.5788 229.215 54.3933 229.215 57.1309V65.751Z" fill="#06131A"/>
<path id="yber (Stroke)" fill-rule="evenodd" clip-rule="evenodd" d="M163.823 37.6612C164.733 36.7851 165.997 36.3862 167.422 36.3862C168.847 36.3862 170.112 36.7851 171.021 37.6645C171.934 38.5464 172.438 39.8616 172.438 41.5877V48.1881C173.86 45.6975 176.413 44.2597 179.649 44.2597C182.905 44.2597 185.472 45.4513 187.212 47.7392C188.94 50.0112 189.818 53.3182 189.818 57.493C189.818 61.6563 188.946 64.9623 187.236 67.2365C185.514 69.527 182.976 70.7263 179.762 70.7263C176.404 70.7263 173.772 69.2854 172.366 66.8173C172.198 68.0184 171.734 68.9682 171.021 69.6549C170.111 70.531 168.847 70.9299 167.422 70.9299C165.997 70.9299 164.733 70.531 163.823 69.6549C162.91 68.7761 162.406 67.4666 162.406 65.751V41.5651C162.406 39.8495 162.91 38.54 163.823 37.6612ZM164.353 38.2121C163.627 38.9114 163.171 40.0001 163.171 41.5651V65.751C163.171 67.316 163.627 68.4048 164.353 69.104C165.082 69.806 166.134 70.1651 167.422 70.1651C168.709 70.1651 169.761 69.806 170.49 69.104C171.216 68.4048 171.673 67.316 171.673 65.751V65.2781H172.496L172.592 65.5201C173.679 68.2729 176.236 69.9614 179.762 69.9614C182.765 69.9614 185.063 68.853 186.624 66.7769C188.197 64.6845 189.054 61.5651 189.054 57.493C189.054 53.4097 188.192 50.2913 186.603 48.2023C185.026 46.1292 182.699 45.0245 179.649 45.0245C176.226 45.0245 173.708 46.7467 172.593 49.6437L172.499 49.8888H171.673V41.5877C171.673 40.0107 171.216 38.9163 170.49 38.2144C169.761 37.5101 168.709 37.1511 167.422 37.1511C166.134 37.1511 165.082 37.5101 164.353 38.2121ZM194.808 47.6717C197.099 45.2905 200.392 43.9882 204.398 43.9882C208.345 43.9882 211.625 45.2486 213.921 47.3974C216.218 49.5475 217.506 52.564 217.506 56.0224C217.506 57.2031 217.167 58.1746 216.468 58.8487C215.77 59.5206 214.769 59.8437 213.552 59.8437H200.961V60.0496C200.961 62.2795 202.551 63.8754 204.828 63.8754C205.792 63.8754 206.605 63.7295 207.384 63.4043C208.167 63.0778 208.934 62.5626 209.795 61.7995C210.299 61.3537 210.76 61.0355 211.258 60.8324C211.759 60.628 212.274 60.5495 212.874 60.5495C214.815 60.5495 216.647 61.8227 216.647 64.0768C216.647 64.8556 216.42 65.6026 215.981 66.3122C214.204 69.2646 209.829 70.9978 204.692 70.9978C200.526 70.9978 197.159 69.7577 194.833 67.4387C192.508 65.1195 191.269 61.7663 191.269 57.6287C191.269 53.4686 192.519 50.0512 194.808 47.6717ZM195.359 48.2019C193.235 50.4096 192.033 53.6213 192.033 57.6287C192.033 61.6135 193.224 64.7535 195.373 66.8971C197.523 69.0408 200.677 70.2329 204.692 70.2329C209.725 70.2329 213.757 68.528 215.326 65.916L215.329 65.9115C215.702 65.3096 215.882 64.6999 215.882 64.0768C215.882 62.3489 214.504 61.3143 212.874 61.3143C212.344 61.3143 211.933 61.383 211.547 61.5405C211.157 61.6994 210.77 61.9583 210.302 62.3722C209.401 63.1701 208.563 63.7409 207.679 64.1101C206.791 64.4806 205.875 64.6402 204.828 64.6402C202.133 64.6402 200.196 62.7066 200.196 60.0496V59.0789H213.552C214.64 59.0789 215.425 58.7912 215.937 58.2979C216.447 57.8068 216.741 57.0588 216.741 56.0224C216.741 52.7611 215.531 49.9517 213.398 47.9558C211.264 45.9587 208.181 44.753 204.398 44.753C200.562 44.753 197.481 45.996 195.359 48.2019ZM133.453 48.7598C133.453 46.0408 135.771 44.056 138.695 44.056C140.013 44.056 141.054 44.3333 141.863 45.0312C142.663 45.7214 143.181 46.7764 143.562 48.2087C143.562 48.2088 143.562 48.2086 143.562 48.2087L147.305 62.1863L151.05 48.1184C151.412 46.7734 151.969 45.746 152.79 45.0586C153.617 44.367 154.667 44.056 155.94 44.056C157.346 44.056 158.567 44.5139 159.44 45.3197C160.315 46.1275 160.82 47.266 160.82 48.5788C160.82 49.4223 160.584 50.6418 160.256 51.5571C160.256 51.5576 160.256 51.5581 160.255 51.5586L154.064 69.2933C154.064 69.2934 154.064 69.2933 154.064 69.2933C152.808 72.8925 151.233 75.4644 149.077 77.1312C146.916 78.8024 144.219 79.5273 140.797 79.5273C138.825 79.5273 137.247 79.1478 136.153 78.3674C135.039 77.5727 134.47 76.393 134.47 74.9141C134.47 73.9144 134.823 73.0797 135.485 72.4998C136.14 71.9252 137.058 71.6357 138.13 71.6357C138.295 71.6357 138.464 71.6415 138.625 71.6471L138.628 71.6472C138.793 71.6529 138.951 71.6583 139.102 71.6583C139.485 71.6583 139.926 71.6361 140.343 71.5526C140.713 71.4786 141.04 71.3609 141.29 71.1878L134.043 51.7465C134.043 51.7461 134.043 51.7469 134.043 51.7465C133.667 50.7586 133.453 49.6259 133.453 48.7598ZM138.695 44.8209C136.104 44.8209 134.218 46.5466 134.218 48.7598C134.218 49.5223 134.411 50.5622 134.758 51.4745L134.759 51.4769L142.201 71.4423L141.875 71.7039C141.479 72.0307 140.975 72.2061 140.493 72.3026C140.006 72.4001 139.509 72.4231 139.102 72.4231C138.937 72.4231 138.768 72.4173 138.606 72.4117L138.603 72.4116C138.438 72.4059 138.28 72.4005 138.13 72.4005C137.19 72.4005 136.469 72.654 135.989 73.0749C135.515 73.4904 135.235 74.1037 135.235 74.9141C135.235 76.1727 135.706 77.1085 136.598 77.7448C137.509 78.3954 138.904 78.7625 140.797 78.7625C144.11 78.7625 146.623 78.0621 148.609 76.5262C150.601 74.9859 152.111 72.569 153.341 69.0414L159.534 51.3035L159.535 51.3004C159.84 50.4511 160.055 49.3186 160.055 48.5788C160.055 47.4708 159.634 46.539 158.921 45.8819C158.207 45.2228 157.179 44.8209 155.94 44.8209C154.795 44.8209 153.935 45.0982 153.281 45.6452C152.622 46.1966 152.128 47.0593 151.789 48.3161C151.789 48.3161 151.789 48.3161 151.789 48.3161L147.691 63.7126H146.922L142.823 48.4062C142.458 47.0333 141.993 46.1532 141.364 45.6104C140.743 45.0753 139.908 44.8209 138.695 44.8209ZM220.923 45.3574C221.801 44.4875 223.037 44.056 224.469 44.056C225.849 44.056 227.052 44.4902 227.909 45.3641C228.549 46.0165 228.973 46.8899 229.147 47.9528C229.462 47.0482 229.879 46.3011 230.399 45.7192C231.273 44.7419 232.414 44.2597 233.758 44.2597C234.743 44.2597 235.599 44.4998 236.247 44.9916C237.31 45.772 237.802 47.1159 237.802 48.8955C237.802 50.444 237.347 51.6687 236.387 52.5289C235.435 53.3813 234.044 53.8008 232.304 53.8705C231.077 53.9152 230.46 54.1396 230.115 54.5598C229.753 55.0006 229.598 55.7577 229.598 57.131V65.751C229.598 67.4056 229.13 68.7134 228.237 69.6073C227.344 70.5009 226.077 70.9299 224.582 70.9299C223.086 70.9299 221.819 70.5009 220.927 69.6073C220.034 68.7134 219.566 67.4056 219.566 65.751V49.0765C219.566 47.4946 220.043 46.2283 220.923 45.3574ZM221.461 45.9008C220.758 46.5967 220.331 47.6494 220.331 49.0765V65.751C220.331 67.2639 220.756 68.3543 221.468 69.0668C222.18 69.7795 223.23 70.1651 224.582 70.1651C225.934 70.1651 226.984 69.7795 227.696 69.0668C228.408 68.3543 228.833 67.2639 228.833 65.751V57.131C228.833 55.7667 228.971 54.7477 229.524 54.0743C230.094 53.3802 231.016 53.1521 232.275 53.1062C233.925 53.04 235.11 52.6451 235.876 51.9592C236.634 51.2808 237.037 50.2884 237.037 48.8955C237.037 47.2376 236.581 46.184 235.792 45.6067L235.787 45.6025C235.305 45.2361 234.625 45.0245 233.758 45.0245C232.617 45.0245 231.689 45.4247 230.969 46.229C230.239 47.0457 229.699 48.3072 229.412 50.0658L229.359 50.3866H228.471V49.0992C228.471 47.6585 228.048 46.5984 227.363 45.8997C226.678 45.2012 225.688 44.8209 224.469 44.8209C223.189 44.8209 222.164 45.2039 221.461 45.9008ZM200.333 54.4066C200.53 52.0711 202.289 50.3684 204.602 50.3684C205.774 50.3684 206.803 50.761 207.562 51.4765C208.321 52.1919 208.786 53.2076 208.871 54.4117L208.9 54.821H200.298L200.333 54.4066ZM201.151 54.0562H208.061C207.924 53.2102 207.559 52.5245 207.038 52.033C206.435 51.4646 205.599 51.1332 204.602 51.1332C202.847 51.1332 201.472 52.3167 201.151 54.0562ZM172.786 53.1293C173.541 52.0388 174.644 51.4091 175.988 51.4091C177.321 51.4091 178.423 52.0393 179.178 53.126C179.925 54.2013 180.326 55.7104 180.326 57.493C180.326 59.2852 179.931 60.7948 179.187 61.8682C178.433 62.9542 177.331 63.5768 175.988 63.5768C174.639 63.5768 173.535 62.9756 172.779 61.8982C172.033 60.8351 171.639 59.3303 171.628 57.518V57.5131C171.639 55.7214 172.04 54.2073 172.786 53.1293ZM172.392 57.5156C172.404 55.8243 172.783 54.4772 173.415 53.5647C174.039 52.6642 174.914 52.1739 175.988 52.1739C177.05 52.1739 177.926 52.6637 178.55 53.5623C179.182 54.4723 179.561 55.8139 179.561 57.493C179.561 59.1849 179.187 60.526 178.558 61.4323C177.938 62.326 177.064 62.812 175.988 62.812C174.896 62.812 174.022 62.3386 173.405 61.4589C172.778 60.5654 172.404 59.2316 172.392 57.5156Z" fill="#06131A"/>
</g>
</g>
</g>
<defs>
<filter id="filter0_d_0_8564" x="-55.7954" y="-25.0241" width="214.151" height="214.151" filterUnits="userSpaceOnUse" color-interpolation-filters="sRGB">
<feFlood flood-opacity="0" result="BackgroundImageFix"/>
<feColorMatrix in="SourceAlpha" type="matrix" values="0 0 0 0 0 0 0 0 0 0 0 0 0 0 0 0 0 0 127 0" result="hardAlpha"/>
<feOffset dy="30.593"/>
<feGaussianBlur stdDeviation="38.2412"/>
<feComposite in2="hardAlpha" operator="out"/>
<feColorMatrix type="matrix" values="0 0 0 0 0.0541667 0 0 0 0 0.232833 0 0 0 0 0.333333 0 0 0 0.1 0"/>
<feBlend mode="normal" in2="BackgroundImageFix" result="effect1_dropShadow_0_8564"/>
<feBlend mode="normal" in="SourceGraphic" in2="effect1_dropShadow_0_8564" result="shape"/>
</filter>
<linearGradient id="paint0_linear_0_8564" x1="42.6927" y1="38.6573" x2="42.6927" y2="58.108" gradientUnits="userSpaceOnUse">
<stop stop-color="#A9F58D"/>
<stop offset="1" stop-color="#60DBCC"/>
</linearGradient>
<linearGradient id="paint1_linear_0_8564" x1="56.1647" y1="51.746" x2="44.1228" y2="62.1684" gradientUnits="userSpaceOnUse">
<stop stop-color="#A9F58D"/>
<stop offset="1" stop-color="#6EF1E1"/>
</linearGradient>
</defs>
</svg>
