<svg width="123" height="39" viewBox="0 0 123 39" fill="none" xmlns="http://www.w3.org/2000/svg">
<path fill-rule="evenodd" clip-rule="evenodd" d="M64.8235 9.7337C64.8235 11.1031 63.7091 12.2062 62.3258 12.2062C60.9425 12.2062 59.8281 11.1031 59.8281 9.7337C59.8281 8.36433 60.904 7.26123 62.3258 7.26123C63.7475 7.29927 64.8235 8.40237 64.8235 9.7337ZM54.5256 14.7166V15.3252C54.5256 15.3252 53.3344 13.8037 50.7983 13.8037C46.6099 13.8037 43.3438 16.9609 43.3438 21.3352C43.3438 25.6716 46.5715 28.8668 50.7983 28.8668C53.3729 28.8668 54.5256 27.3072 54.5256 27.3072V27.9539C54.5256 28.2582 54.7562 28.4864 55.0636 28.4864H58.1761V14.1841H55.0636C54.7562 14.1841 54.5256 14.4504 54.5256 14.7166ZM54.5254 23.8837C53.949 24.7206 52.7963 25.4433 51.4129 25.4433C48.9537 25.4433 47.0708 23.9218 47.0708 21.3352C47.0708 18.7486 48.9537 17.2271 51.4129 17.2271C52.7578 17.2271 53.9875 17.9878 54.5254 18.7866V23.8837ZM60.4814 14.184H64.1703V28.4863H60.4814V14.184ZM115.584 13.8036C113.048 13.8036 111.856 15.3251 111.856 15.3251V7.29907H108.167V28.4863H111.28C111.587 28.4863 111.818 28.22 111.818 27.9537V27.3071C111.818 27.3071 113.009 28.8666 115.545 28.8666C119.734 28.8666 123 25.6714 123 21.3351C123 16.9988 119.734 13.8036 115.584 13.8036ZM114.969 25.4052C113.547 25.4052 112.433 24.6825 111.856 23.8456V18.7485C112.433 17.9878 113.662 17.189 114.969 17.189C117.428 17.189 119.311 18.7105 119.311 21.2971C119.311 23.8837 117.428 25.4052 114.969 25.4052ZM106.246 20.0039V28.5244H102.557V20.4223C102.557 18.064 101.789 17.113 99.7139 17.113C98.5996 17.113 97.4468 17.6836 96.7167 18.5204V28.4864H93.0278V14.1841H95.9482C96.2556 14.1841 96.4861 14.4504 96.4861 14.7166V15.3252C97.5621 14.2221 98.9838 13.8037 100.406 13.8037C102.019 13.8037 103.364 14.2602 104.44 15.1731C105.747 16.2381 106.246 17.6075 106.246 20.0039ZM84.0748 13.8037C81.5387 13.8037 80.3475 15.3252 80.3475 15.3252V7.29915H76.6586V28.4863H79.7711C80.0785 28.4863 80.3091 28.2201 80.3091 27.9538V27.3072C80.3091 27.3072 81.5003 28.8667 84.0363 28.8667C88.2247 28.8667 91.4909 25.6715 91.4909 21.3352C91.5294 16.9988 88.2632 13.8037 84.0748 13.8037ZM83.4601 25.4052C82.0384 25.4052 80.924 24.6825 80.3477 23.8456V18.7485C80.924 17.9878 82.1537 17.189 83.4601 17.189C85.9194 17.189 87.8022 18.7105 87.8022 21.2971C87.8022 23.8837 85.9194 25.4052 83.4601 25.4052ZM73.4691 13.8037C74.5834 13.8037 75.1598 13.9939 75.1598 13.9939V17.3793C75.1598 17.3793 72.0857 16.3523 70.1645 18.5204V28.5244H66.4756V14.1841H69.5881C69.8955 14.1841 70.126 14.4504 70.126 14.7166V15.3252C70.8177 14.5264 72.3163 13.8037 73.4691 13.8037ZM35.1589 27.193C34.9667 26.7366 34.7746 26.2421 34.5825 25.8237C34.2751 25.139 33.9677 24.4923 33.6987 23.8837L33.6603 23.8457C31.0089 18.14 28.1692 12.3582 25.172 6.6525L25.0568 6.42427C24.7493 5.8537 24.4419 5.24509 24.1345 4.63649C23.7503 3.9518 23.366 3.22908 22.7512 2.54439C21.5216 1.02287 19.754 0.186035 17.8711 0.186035C15.9499 0.186035 14.2207 1.02287 12.9527 2.46832C12.3763 3.153 11.9536 3.87572 11.5693 4.56041C11.2619 5.16902 10.9545 5.77763 10.6471 6.3482L10.5318 6.57643C7.57306 12.2821 4.69114 18.0639 2.03976 23.7696L2.00134 23.8457C1.73236 24.4543 1.42495 25.101 1.11755 25.7856C0.925419 26.2041 0.73329 26.6605 0.541162 27.155C0.0416278 28.5624 -0.112075 29.8937 0.0800535 31.2631C0.502736 34.116 2.42402 36.5124 5.07539 37.5774C6.07446 37.9958 7.11196 38.186 8.18787 38.186C8.49528 38.186 8.87954 38.148 9.18694 38.11C10.455 37.9578 11.7615 37.5394 13.0295 36.8167C14.605 35.9418 16.1036 34.6865 17.7943 32.8607C19.485 34.6865 21.0221 35.9418 22.5591 36.8167C23.8271 37.5394 25.1336 37.9578 26.4017 38.11C26.7091 38.148 27.0933 38.186 27.4007 38.186C28.4766 38.186 29.5526 37.9958 30.5094 37.5774C33.1992 36.5124 35.082 34.0779 35.5047 31.2631C35.8121 29.9318 35.6584 28.6005 35.1589 27.193ZM17.8326 29.1711C15.7576 26.5845 14.4127 24.15 13.9516 22.096C13.7595 21.2211 13.7211 20.4604 13.8363 19.7757C13.9132 19.1671 14.1437 18.6345 14.4511 18.1781C15.1812 17.151 16.4108 16.5044 17.8326 16.5044C19.2544 16.5044 20.5224 17.113 21.2141 18.1781C21.5215 18.6345 21.752 19.1671 21.8289 19.7757C21.9441 20.4604 21.9057 21.2591 21.7136 22.096C21.2525 24.112 19.9076 26.5464 17.8326 29.1711ZM33.1607 30.9588C32.8918 32.9368 31.5469 34.6485 29.6678 35.4093C28.7456 35.7896 27.7466 35.9038 26.7475 35.7896C25.7868 35.6755 24.8262 35.3712 23.8271 34.8006C22.4438 34.0399 21.0605 32.8607 19.4466 31.111C21.9827 28.0299 23.5197 25.2151 24.0961 22.7046C24.3651 21.5254 24.4035 20.4603 24.2882 19.4713C24.1345 18.5204 23.7887 17.6455 23.2507 16.8847C22.0595 15.173 20.0614 14.184 17.8327 14.184C15.604 14.184 13.6059 15.2111 12.4147 16.8847C11.8767 17.6455 11.5309 18.5204 11.3772 19.4713C11.2235 20.4603 11.2619 21.5634 11.5693 22.7046C12.1457 25.2151 13.7212 28.0679 16.2188 31.149C14.6434 32.8987 13.2216 34.0779 11.8383 34.8387C10.8392 35.4093 9.8786 35.7136 8.91796 35.8277C7.88047 35.9418 6.8814 35.7896 5.99761 35.4473C4.11475 34.6865 2.76985 32.9748 2.50087 30.9968C2.3856 30.0459 2.46245 29.0949 2.8467 28.0299C2.96198 27.6495 3.15411 27.2691 3.34624 26.8127C3.61522 26.2041 3.92262 25.5574 4.23003 24.9108L4.26845 24.8347C6.91983 19.167 9.76333 13.3852 12.7221 7.7556L12.8374 7.52738C13.1448 6.95681 13.4522 6.3482 13.7596 5.77763C14.067 5.16902 14.4128 4.59845 14.8355 4.10395C15.6425 3.19104 16.7184 2.69655 17.9096 2.69655C19.1008 2.69655 20.1767 3.19104 20.9836 4.10395C21.4063 4.59845 21.7521 5.16902 22.0595 5.77763C22.367 6.3482 22.6744 6.95681 22.9818 7.52738L23.097 7.7556C26.0174 13.4233 28.8609 19.2051 31.5084 24.8727V24.9108C31.8158 25.5194 32.0848 26.2041 32.3922 26.8127C32.5843 27.2691 32.7765 27.6495 32.8918 28.0299C33.1992 29.0189 33.3144 29.9698 33.1607 30.9588Z" fill="#36464F"/>
</svg>
