<svg width="95" height="50" viewBox="0 0 95 50" fill="none" xmlns="http://www.w3.org/2000/svg">
<path fill-rule="evenodd" clip-rule="evenodd" d="M92.7788 47.2751H93.2511L93.9021 49.024H93.9149L94.5403 47.2751H94.9999V49.3988H94.6935V47.6624H94.6807L94.0297 49.3988H93.7362L93.0979 47.6624H93.0852V49.3988H92.7788V47.2751ZM92.6259 47.2751V47.525H91.8856V49.3988H91.5792V47.525H90.8389V47.2751H92.6259ZM95 15.8826C95 14.7708 94.0809 13.8714 92.9449 13.8714C91.8088 13.8714 90.877 14.7708 90.877 15.8826V20.1299C90.877 21.2417 91.8088 22.1536 92.9449 22.1536C94.0809 22.1536 95 21.2417 95 20.1299V15.8826ZM83.6651 10.3237C83.6651 9.20569 82.7461 8.30127 81.5717 8.30127C80.4357 8.30127 79.5166 9.20569 79.5166 10.3237V20.13C79.5166 21.2418 80.4357 22.1537 81.5717 22.1537C82.7461 22.1537 83.6651 21.2418 83.6651 20.13V10.3237ZM72.2915 2.7035C72.2915 1.59046 71.3724 0.686035 70.2363 0.686035C69.1003 0.686035 68.1685 1.59046 68.1685 2.7035V24.1523C68.1685 25.2766 69.1003 26.176 70.2363 26.176C71.3724 26.176 72.2915 25.2766 72.2915 24.1523V2.7035ZM60.931 10.3236C60.931 9.2056 60.012 8.30118 58.8631 8.30118C57.7271 8.30118 56.808 9.2056 56.808 10.3236V20.1299C56.808 21.2417 57.7271 22.1536 58.8631 22.1536C60.012 22.1536 60.931 21.2417 60.931 20.1299V10.3236ZM49.5703 15.8826C49.5703 14.7708 48.6385 13.8713 47.5025 13.8713C46.3664 13.8713 45.4346 14.7708 45.4346 15.8826V20.1298C45.4346 21.2416 46.3664 22.1536 47.5025 22.1536C48.6385 22.1536 49.5703 21.2416 49.5703 20.1298V15.8826ZM38.2227 10.3237C38.2227 9.20569 37.2909 8.30127 36.1549 8.30127C35.006 8.30127 34.0742 9.20569 34.0742 10.3237V20.13C34.0742 21.2418 35.006 22.1537 36.1549 22.1537C37.2909 22.1537 38.2227 21.2418 38.2227 20.13V10.3237ZM26.8618 2.7035C26.8618 1.59046 25.93 0.686035 24.794 0.686035C23.6451 0.686035 22.7261 1.59046 22.7261 2.7035V24.1523C22.7261 25.2766 23.6451 26.176 24.794 26.176C25.93 26.176 26.8618 25.2766 26.8618 24.1523V2.7035ZM15.5015 10.3236C15.5015 9.2056 14.5696 8.30118 13.4336 8.30118C12.2847 8.30118 11.3657 9.2056 11.3657 10.3236V20.1299C11.3657 21.2417 12.2847 22.1536 13.4336 22.1536C14.5696 22.1536 15.5015 21.2417 15.5015 20.1299V10.3236ZM4.13576 15.8826C4.13576 14.7708 3.20777 13.8714 2.06916 13.8714C0.92927 13.8714 0 14.7708 0 15.8826V20.1299C0 21.2417 0.92927 22.1536 2.06916 22.1536C3.20777 22.1536 4.13576 21.2417 4.13576 20.1299V15.8826ZM46.8388 36.9192C46.775 36.9067 45.0134 36.432 43.571 36.432C41.9116 36.432 41.0053 36.9691 41.0053 37.7561C41.0053 38.7305 42.2307 39.0803 42.9073 39.2927L44.0561 39.6424C46.7622 40.4919 48.0004 42.3032 48.0004 44.2645C48.0004 48.3244 44.3497 49.686 41.1585 49.686C38.9502 49.686 36.8696 49.2988 36.6653 49.2488V45.5262C37.0355 45.6261 38.7843 46.1383 40.5969 46.1383C42.6647 46.1383 43.6221 45.5387 43.6221 44.6268C43.6221 43.8023 42.8051 43.3276 41.7712 43.0153C41.5159 42.9278 41.133 42.8154 40.8777 42.728C38.5545 42.0159 36.627 40.6793 36.627 38.006C36.627 34.9829 38.9374 32.9592 42.7796 32.9592C44.7964 32.9592 46.7111 33.4339 46.8388 33.4714V36.9192ZM77.7294 37.0816C75.253 37.0816 73.4277 38.9804 73.4277 41.3289C73.4277 43.6774 75.253 45.5762 77.7294 45.5762C80.2057 45.5762 82.0438 43.6774 82.0438 41.3289C82.0438 38.9804 80.2057 37.0816 77.7294 37.0816ZM86.4478 41.3289C86.4478 45.9509 82.8099 49.6861 77.7295 49.6861C72.6492 49.6861 69.0112 45.9509 69.0112 41.3289C69.0112 36.7068 72.6492 32.9592 77.7295 32.9592C82.8099 32.9592 86.4478 36.7068 86.4478 41.3289ZM21.1434 37.8811C20.9775 37.7936 19.6372 37.0191 17.6459 37.0191C14.9398 37.0191 13.0762 38.8554 13.0762 41.3289C13.0762 43.7273 14.8632 45.6386 17.6459 45.6386C19.5989 45.6386 20.9647 44.8766 21.1434 44.7767V49.1114C20.6201 49.2613 19.2032 49.686 17.3396 49.686C12.6549 49.686 8.55363 46.5256 8.55363 41.3289C8.55363 36.4944 12.272 32.9592 17.3396 32.9592C19.3053 32.9592 20.7477 33.4214 21.1434 33.5463V37.8811ZM64.6202 37.8811C64.4542 37.7936 63.1139 37.0191 61.1226 37.0191C58.4293 37.0191 56.5656 38.8555 56.5656 41.3289C56.5656 43.7274 58.3527 45.6386 61.1226 45.6386C63.0756 45.6386 64.4415 44.8766 64.6202 44.7767V49.1114C64.1096 49.2613 62.6799 49.6861 60.8291 49.6861C56.1444 49.6861 52.0342 46.5256 52.0342 41.3289C52.0342 36.4945 55.7487 32.9592 60.8291 32.9592C62.7821 32.9592 64.2372 33.4214 64.6202 33.5464V37.8811ZM31.0363 49.3988H26.875V33.2466H31.0363V49.3988Z" fill="#36464F"/>
</svg>
