<svg width="80" height="39" viewBox="0 0 80 39" fill="none" xmlns="http://www.w3.org/2000/svg">
<path fill-rule="evenodd" clip-rule="evenodd" d="M32.9297 0.205502C29.6119 0.436909 26.8038 3.22305 26.8038 7.14771L26.8038 25.8269C26.8038 26.5026 26.3033 27.0858 25.5712 27.0858L19.7326 27.0858C7.09154 27.1043 8.21292 10.9613 18.9726 10.9428H25.4414V6.24985H18.7502C14.4593 6.24985 11.2805 7.85119 9.13968 10.2301C6.98959 12.6182 5.91455 15.8209 5.91455 19.0235C5.90528 22.2262 6.97106 25.4104 9.16748 27.7985C11.3639 30.1774 14.6817 31.7787 19.2321 31.7787H30.2513C30.9742 31.7787 31.5766 31.1493 31.5766 30.4273L31.5766 7.64755C31.5673 6.472 32.2346 5.56489 33.0965 5.29646C33.9584 5.02802 34.9686 5.37051 35.5617 6.22208L35.5895 6.24985C38.7219 11.3686 51.1591 31.2974 51.1776 31.3344C51.5205 31.8157 51.9283 31.9083 52.2249 31.8065C52.5214 31.7046 52.818 31.3899 52.818 30.5939L52.818 7.64755C52.8087 6.472 53.476 5.56489 54.3379 5.29646C55.1998 5.02802 56.1914 5.37051 56.7845 6.22208V6.24985H56.8309C59.9633 11.3686 72.4005 31.2974 72.419 31.3344C72.7527 31.8157 73.1512 31.9083 73.4663 31.8065C73.7814 31.7046 74.0872 31.4084 74.0872 30.6217V0.325832H69.3607V18.0053C69.3607 18.0053 66.5433 13.2013 61.7242 4.91695C56.9977 -3.19156 48.073 0.168472 48.073 7.14771L48.073 18.0053C48.073 18.0053 45.302 13.2013 40.4735 4.91695C38.3976 1.37179 35.5153 0.0111198 32.9297 0.205502ZM19.575 0.325832C-6.70795 0.325832 -6.45773 37.7397 19.9272 37.7582L30.2513 37.7582C34.6905 37.7582 37.5171 35.1387 37.5171 30.2884V20.8007C37.5171 20.8007 43.3094 30.3717 45.5892 34.1205C49.4538 40.4981 58.7863 39.2393 58.7585 31.2788V20.8007C58.7585 20.8007 64.5323 30.3717 66.8028 34.1205C70.6674 40.4981 80.0277 39.2393 79.9999 31.2788V0.316574H75.2735V30.6124C75.2827 31.7787 74.6711 32.6395 73.8277 32.908C72.9843 33.1856 72.0205 32.8339 71.4274 32.0101H71.4089V31.9638C71.4089 31.9638 58.9624 12.0906 55.7929 6.90705C55.7836 6.89779 55.7744 6.91631 55.7651 6.90705C55.7558 6.90705 55.7744 6.87928 55.7651 6.87928C55.4407 6.44424 55.0144 6.35167 54.6715 6.45349C54.3194 6.56457 53.9765 6.87002 53.9857 7.6383L53.9857 30.5846C53.995 31.7417 53.3926 32.6488 52.5585 32.9357C51.7244 33.2134 50.7698 32.8432 50.186 32.0101V31.9823H50.1582C50.1582 31.9823 37.7025 12.0721 34.5422 6.89779C34.2086 6.42572 33.7823 6.31465 33.4301 6.42572C33.078 6.5368 32.7351 6.84225 32.7443 7.61053V7.6383L32.7443 30.418C32.7443 31.7972 31.6044 32.9542 30.2235 32.9542H19.2136C14.3759 32.9542 10.7152 31.2141 8.29633 28.5945C5.87748 25.975 4.68195 22.4946 4.68195 19.0143C4.69122 15.5432 5.87748 12.035 8.24072 9.4155C10.604 6.79597 14.1442 5.05579 18.7317 5.05579H25.4229V0.316574L19.575 0.325832Z" fill="#36464F"/>
</svg>
