<svg width="110" height="36" viewBox="0 0 110 36" fill="none" xmlns="http://www.w3.org/2000/svg">
<path fill-rule="evenodd" clip-rule="evenodd" d="M14.124 27.8384C18.266 27.8384 21.3872 26.5166 23.8305 24.0332C26.3457 21.5773 27.1265 18.1391 27.1265 15.3577C27.1265 14.494 27.0586 13.702 26.9228 13.037H14.124V16.7456H23.2222C22.9506 18.8317 22.2348 20.3549 21.1529 21.4145C19.8266 22.7031 17.7579 24.1297 14.124 24.1297C8.52302 24.1297 4.14254 19.7258 4.14254 14.2622C4.14254 8.79862 8.52302 4.39189 14.124 4.39189C17.1434 4.39189 19.3538 5.55359 20.9806 7.04365L23.6636 4.42776C21.3872 2.31131 18.3678 0.686035 14.124 0.686035C6.44977 0.686035 0 6.77599 0 14.2622C0 21.7456 6.44977 27.8384 14.124 27.8384ZM37.4845 27.8384C42.4385 27.8384 46.4786 24.1298 46.4786 19.0939C46.4786 14.0305 42.4385 10.355 37.4845 10.355C32.5221 10.355 28.4819 14.0305 28.4819 19.0939C28.4819 24.1298 32.5221 27.8384 37.4845 27.8384ZM37.4842 24.3945C34.7653 24.3945 32.4199 22.2091 32.4199 19.0938C32.4199 15.9508 34.7653 13.8013 37.4842 13.8013C40.1974 13.8013 42.54 15.9508 42.54 19.0938C42.54 22.2091 40.1974 24.3945 37.4842 24.3945ZM57.1047 27.8384C62.0615 27.8384 66.1016 24.1298 66.1016 19.0939C66.1016 14.0305 62.0615 10.355 57.1047 10.355C52.1451 10.355 48.105 14.0305 48.105 19.0939C48.105 24.1298 52.1451 27.8384 57.1047 27.8384ZM57.1049 24.3945C54.3889 24.3945 52.0435 22.2091 52.0435 19.0938C52.0435 15.9508 54.3889 13.8013 57.1049 13.8013C59.821 13.8013 62.1636 15.9508 62.1636 19.0938C62.1636 22.2091 59.821 24.3945 57.1049 24.3945ZM76.3889 35.686C81.0033 35.686 84.9133 33.0398 84.9133 26.5801V10.8847H81.1759V12.3086H81.0401C80.1546 11.2821 78.4571 10.3549 76.3238 10.3549C71.8395 10.3549 67.7343 14.196 67.7343 19.1297C67.7343 24.0332 71.8395 27.8384 76.3238 27.8384C78.4571 27.8384 80.1546 26.9112 81.0401 25.8516H81.1759V27.1099C81.1759 30.457 79.3426 32.2423 76.3889 32.2423C73.9812 32.2423 72.4846 30.5563 71.8706 29.127L68.4445 30.5205C69.4318 32.8411 72.0432 35.686 76.3889 35.686ZM76.6577 24.3945C73.9445 24.3945 71.667 22.1788 71.667 19.1296C71.667 16.0502 73.9445 13.8013 76.6577 13.8013C79.3427 13.8013 81.4476 16.0502 81.4476 19.1296C81.4476 22.1788 79.3427 24.3945 76.6577 24.3945ZM91.5648 1.61319H87.6265V27.3086H91.5648V1.61319ZM102.361 27.8384C106.466 27.8384 108.845 25.3909 109.83 23.9643L106.772 21.9803C105.756 23.4317 104.364 24.3947 102.361 24.3947C100.358 24.3947 98.929 23.5007 98.0152 21.7457L110 16.9085L109.592 15.9179C108.845 13.9643 106.568 10.355 101.92 10.355C97.3022 10.355 93.4658 13.9008 93.4658 19.0939C93.4658 23.9974 97.2683 27.8384 102.361 27.8384ZM97.3704 18.8317C97.2685 15.457 100.052 13.7324 102.056 13.7324C103.617 13.7324 104.941 14.494 105.386 15.5867L97.3704 18.8317Z" fill="#36464F"/>
</svg>
