<svg width="159" height="23" viewBox="0 0 159 23" fill="none" xmlns="http://www.w3.org/2000/svg">
<path fill-rule="evenodd" clip-rule="evenodd" d="M62.0496 19.4388L48.2476 19.4293V13.3111C48.2476 12.4944 48.9434 11.7998 49.7689 11.7998H62.0496C64.19 11.7998 65.9176 13.509 65.9176 15.6103C65.9176 17.7352 64.19 19.444 62.0496 19.444V19.4388ZM48.2476 2.51463L62.112 2.53026C64.0556 2.53026 65.6297 4.08561 65.6297 6.00553C65.6297 7.91456 64.0556 9.46754 62.112 9.46754H49.5577C49.1018 9.50068 48.6507 9.60248 48.2476 9.77387V2.51416V2.51463ZM65.654 10.6109C67.0601 9.55318 67.9864 7.88562 67.9864 5.99458C67.9864 2.79866 65.3517 0.194572 62.1075 0.194572L45.749 0.186523V21.7564H62.0499C65.4861 21.7564 68.2695 19.0046 68.2695 15.6051C68.2695 13.5455 67.2377 11.7274 65.654 10.6109ZM138.292 10.9906C137.764 10.9906 137.265 11.0967 136.804 11.2818L136.756 2.51409L150.458 2.50935C152.833 2.50935 154.758 4.39992 154.758 6.7488C154.758 9.09532 152.833 10.9982 150.458 10.9982L138.268 10.9887L138.292 10.9906ZM157.445 19.4383C156.845 19.9151 155.991 19.8189 155.468 19.2726L150.683 13.2813C154.259 13.1724 157.114 10.2861 157.114 6.74359C157.114 3.11776 154.139 0.186035 150.467 0.186035H134.28V21.7578H136.781L136.829 14.7301C136.877 13.947 137.529 13.2945 138.34 13.2945H147.55L153.529 20.7881C154.907 22.3932 157.32 22.6607 159 21.3582L157.469 19.4373L157.445 19.4383ZM93.3105 19.2882V13.402C93.3105 12.5938 94.0064 11.9295 94.8174 11.9144H105.687V9.43339H94.779C94.2737 9.44367 93.7752 9.54976 93.3105 9.74588V2.65472H111.057V0.186523H90.791V21.7564H111.792V19.2887H93.3105V19.2882ZM20.8163 0.23859V12.8045C20.8163 17.1036 18.7144 19.6452 12.4002 19.6452C6.06791 19.6452 3.95393 17.1041 3.95393 12.8045V3.97143C3.87379 1.87774 2.13365 0.195978 0 0.195978V2.63435C0.773606 2.63435 1.38884 3.22713 1.46179 3.97143V13.6624C1.46179 18.6433 5.421 22.1839 12.3998 22.1839C19.368 22.1839 23.3118 18.6433 23.3118 13.6624V0.239537H20.8163V0.23859Z" fill="#36464F"/>
</svg>
