<svg width="25" height="25" viewBox="0 0 25 25" fill="none" xmlns="http://www.w3.org/2000/svg">
<path d="M18.3274 6.06531L17.8844 4.51631C17.6394 3.65731 16.8544 3.06531 15.9614 3.06531H8.69339C7.80039 3.06531 7.01539 3.65731 6.77039 4.51631L6.32739 6.06531" stroke="#06131A" stroke-width="2" stroke-linecap="round" stroke-linejoin="round"/>
<path d="M18.7444 9.06531L17.5364 19.2993C17.4174 20.3063 16.5634 21.0653 15.5494 21.0653H9.1054C8.0914 21.0653 7.2384 20.3063 7.1194 19.2993L5.9104 9.06531" stroke="#06131A" stroke-width="2" stroke-linecap="round" stroke-linejoin="round"/>
<path d="M13.7416 13.6511C14.5227 14.4321 14.5227 15.6985 13.7416 16.4795C12.9606 17.2606 11.6942 17.2606 10.9132 16.4795C10.1321 15.6985 10.1321 14.4321 10.9132 13.6511C11.6942 12.87 12.9606 12.87 13.7416 13.6511" stroke="#06131A" stroke-width="2" stroke-linecap="round" stroke-linejoin="round"/>
<path d="M5.66129 6.06531H18.9933C19.4233 6.06531 19.8063 6.34031 19.9423 6.74931L20.2753 7.74931C20.4913 8.39631 20.0093 9.06531 19.3263 9.06531H5.32829C4.64529 9.06531 4.16329 8.39631 4.37929 7.74931L4.71229 6.74931C4.84929 6.34031 5.23129 6.06531 5.66129 6.06531Z" stroke="#06131A" stroke-width="2" stroke-linecap="round" stroke-linejoin="round"/>
</svg>
