<svg width="8" height="14" viewBox="0 0 8 14" fill="none" xmlns="http://www.w3.org/2000/svg">
<path d="M4.63691 13.6161H2.8389C2.59037 13.6161 2.3889 13.4147 2.3889 13.1661V7.31613H0.811914C0.68765 7.31613 0.586914 7.2154 0.586914 7.09113V4.84077C0.586914 4.7165 0.68765 4.61577 0.811914 4.61577H2.3889V3.2845C2.3889 2.2743 2.69126 1.4845 3.29598 0.915114C3.86291 0.382461 4.94282 0.116135 5.8877 0.116135C6.37077 0.116135 6.85384 0.116135 7.33691 0.116135C7.58544 0.116135 7.78691 0.317607 7.78691 0.566135V2.36613C7.78691 2.61466 7.58544 2.81613 7.33691 2.81613C6.88691 2.81613 6.43691 2.81613 5.98691 2.81613C5.31191 2.81613 5.08691 3.04113 5.08691 3.71613V4.61577H7.52131C7.64558 4.61577 7.74631 4.7165 7.74631 4.84077C7.74631 4.85316 7.74529 4.86553 7.74325 4.87775L7.36824 7.12812C7.35016 7.23661 7.2563 7.31613 7.14631 7.31613H5.08691V13.1661C5.08691 13.4147 4.88544 13.6161 4.63691 13.6161Z" fill="#88FFF0"/>
</svg>
