<svg width="10" height="19" viewBox="0 0 10 19" fill="none" xmlns="http://www.w3.org/2000/svg">
<path d="M5.59995 18.2653H3.2026C2.87123 18.2653 2.6026 17.9966 2.6026 17.6653V9.86526H0.499951C0.334266 9.86526 0.199951 9.73094 0.199951 9.56526V6.56477C0.199951 6.39908 0.334266 6.26477 0.499951 6.26477H2.6026V4.48975C2.6026 3.14281 3.00575 2.08975 3.81205 1.33056C4.56795 0.620361 6.00782 0.265259 7.26767 0.265259C7.91176 0.265259 8.55586 0.265259 9.19995 0.265259C9.53132 0.265259 9.79995 0.533888 9.79995 0.865259V3.26526C9.79995 3.59663 9.53132 3.86526 9.19995 3.86526C8.59995 3.86526 7.99995 3.86526 7.39995 3.86526C6.49995 3.86526 6.19995 4.16526 6.19995 5.06526V6.26477H9.44582C9.6115 6.26477 9.74582 6.39908 9.74582 6.56477C9.74582 6.58129 9.74446 6.59778 9.74174 6.61408L9.24172 9.61457C9.21762 9.75923 9.09246 9.86526 8.94581 9.86526H6.19995V17.6653C6.19995 17.9966 5.93132 18.2653 5.59995 18.2653Z" fill="#06131A"/>
</svg>
