<svg width="24" height="25" viewBox="0 0 24 25" fill="none" xmlns="http://www.w3.org/2000/svg">
<path d="M10.0916 5.46531C8.01542 5.46531 7.31719 5.60014 6.6012 5.98306C6.04167 6.2823 5.61689 6.70707 5.31765 7.26661C4.93474 7.9826 4.7999 8.68083 4.7999 10.757V14.5737C4.7999 16.6498 4.93474 17.348 5.31765 18.064C5.61689 18.6235 6.04167 19.0483 6.6012 19.3476C7.31719 19.7305 8.01542 19.8653 10.0916 19.8653H13.9082C15.9844 19.8653 16.6826 19.7305 17.3986 19.3476C17.9581 19.0483 18.3829 18.6235 18.6822 18.064C19.0651 17.348 19.1999 16.6498 19.1999 14.5737V10.757C19.1999 8.68083 19.0651 7.9826 18.6822 7.26661C18.3829 6.70707 17.9581 6.2823 17.3986 5.98306C16.6826 5.60014 15.9844 5.46531 13.9082 5.46531H10.0916ZM10.0916 3.06531H13.9082C16.5828 3.06531 17.5527 3.34378 18.5304 3.86671C19.5082 4.38963 20.2756 5.15699 20.7985 6.13477C21.3214 7.11255 21.5999 8.08241 21.5999 10.757V14.5737C21.5999 17.2482 21.3214 18.2181 20.7985 19.1958C20.2756 20.1736 19.5082 20.941 18.5304 21.4639C17.5527 21.9868 16.5828 22.2653 13.9082 22.2653H10.0916C7.417 22.2653 6.44714 21.9868 5.46936 21.4639C4.49159 20.941 3.72422 20.1736 3.2013 19.1958C2.67838 18.2181 2.3999 17.2482 2.3999 14.5737V10.757C2.3999 8.08241 2.67838 7.11255 3.2013 6.13477C3.72422 5.15699 4.49159 4.38963 5.46936 3.86671C6.44714 3.34378 7.417 3.06531 10.0916 3.06531ZM16.1999 7.26531C16.8626 7.26531 17.3999 7.80257 17.3999 8.46531C17.3999 9.12805 16.8626 9.66531 16.1999 9.66531C15.5372 9.66531 14.9999 9.12805 14.9999 8.46531C14.9999 7.80257 15.5372 7.26531 16.1999 7.26531ZM11.9999 9.06531C13.9881 9.06531 15.5999 10.6771 15.5999 12.6653C15.5999 14.6535 13.9881 16.2653 11.9999 16.2653C10.0117 16.2653 8.3999 14.6535 8.3999 12.6653C8.3999 10.6771 10.0117 9.06531 11.9999 9.06531Z" fill="#06131A"/>
</svg>
