<svg width="16" height="15" viewBox="0 0 16 15" fill="none" xmlns="http://www.w3.org/2000/svg">
<path d="M6.7558 2.01614C5.1987 2.01614 4.67503 2.11727 4.13804 2.40445C3.71839 2.62888 3.3998 2.94747 3.17537 3.36712C2.88819 3.90411 2.78706 4.42778 2.78706 5.98488V8.8474C2.78706 10.4045 2.88819 10.9282 3.17537 11.4652C3.3998 11.8848 3.71839 12.2034 4.13804 12.4278C4.67503 12.715 5.1987 12.8161 6.7558 12.8161H9.61832C11.1754 12.8161 11.6991 12.715 12.2361 12.4278C12.6557 12.2034 12.9743 11.8848 13.1987 11.4652C13.4859 10.9282 13.5871 10.4045 13.5871 8.8474V5.98488C13.5871 4.42778 13.4859 3.90411 13.1987 3.36712C12.9743 2.94747 12.6557 2.62888 12.2361 2.40445C11.6991 2.11727 11.1754 2.01614 9.61832 2.01614H6.7558ZM6.7558 0.216141H9.61832C11.6242 0.216141 12.3516 0.424998 13.085 0.817189C13.8183 1.20938 14.3938 1.7849 14.786 2.51824C15.1782 3.25157 15.3871 3.97896 15.3871 5.98488V8.8474C15.3871 10.8533 15.1782 11.5807 14.786 12.314C14.3938 13.0474 13.8183 13.6229 13.085 14.0151C12.3516 14.4073 11.6242 14.6161 9.61832 14.6161H6.7558C4.74988 14.6161 4.02249 14.4073 3.28916 14.0151C2.55582 13.6229 1.9803 13.0474 1.58811 12.314C1.19592 11.5807 0.987061 10.8533 0.987061 8.8474V5.98488C0.987061 3.97896 1.19592 3.25157 1.58811 2.51824C1.9803 1.7849 2.55582 1.20938 3.28916 0.817189C4.02249 0.424998 4.74988 0.216141 6.7558 0.216141ZM11.3371 3.36614C11.8341 3.36614 12.2371 3.76908 12.2371 4.26614C12.2371 4.7632 11.8341 5.16614 11.3371 5.16614C10.84 5.16614 10.4371 4.7632 10.4371 4.26614C10.4371 3.76908 10.84 3.36614 11.3371 3.36614ZM8.18706 4.71614C9.67823 4.71614 10.8871 5.92497 10.8871 7.41614C10.8871 8.90731 9.67823 10.1161 8.18706 10.1161C6.69589 10.1161 5.48706 8.90731 5.48706 7.41614C5.48706 5.92497 6.69589 4.71614 8.18706 4.71614Z" fill="#88FFF0"/>
</svg>
