<svg width="24" height="25" viewBox="0 0 24 25" fill="none" xmlns="http://www.w3.org/2000/svg">
<path fill-rule="evenodd" clip-rule="evenodd" d="M8 4.06531C7.44728 4.06531 7 4.51259 7 5.06531V19.0653C7 19.618 7.44728 20.0653 8 20.0653H16C16.5527 20.0653 17 19.618 17 19.0653V5.06531C17 4.51259 16.5527 4.06531 16 4.06531H8ZM5 5.06531C5 3.40802 6.34272 2.06531 8 2.06531H16C17.6573 2.06531 19 3.40802 19 5.06531V19.0653C19 20.7226 17.6573 22.0653 16 22.0653H8C6.34272 22.0653 5 20.7226 5 19.0653V5.06531Z" fill="#06131A"/>
<path fill-rule="evenodd" clip-rule="evenodd" d="M9.75 6.06531C9.75 5.51302 10.1977 5.06531 10.75 5.06531H13.25C13.8023 5.06531 14.25 5.51302 14.25 6.06531C14.25 6.61759 13.8023 7.06531 13.25 7.06531H10.75C10.1977 7.06531 9.75 6.61759 9.75 6.06531Z" fill="#06131A"/>
<circle cx="12" cy="17.3093" r="1.38285" fill="#06131A"/>
</svg>
