<svg width="24" height="25" viewBox="0 0 24 25" fill="none" xmlns="http://www.w3.org/2000/svg">
<path d="M12 7.21052C11.9339 7.21052 11.869 7.22831 11.8121 7.26204C11.7552 7.29576 11.7085 7.34417 11.6768 7.40218L10.528 9.50272C10.2914 9.93552 9.93552 10.2914 9.50272 10.528L7.40219 11.6768C7.34418 11.7085 7.29576 11.7552 7.26204 11.8121C7.22832 11.869 7.21052 11.9339 7.21052 12C7.21052 12.0661 7.22832 12.131 7.26204 12.1879C7.29576 12.2448 7.34417 12.2915 7.40218 12.3232L9.50272 13.472C9.93551 13.7086 10.2913 14.0645 10.528 14.4973L11.6767 16.5978C11.7085 16.6558 11.7552 16.7042 11.8121 16.738C11.869 16.7717 11.9339 16.7895 12 16.7895C12.0661 16.7895 12.131 16.7717 12.1879 16.738C12.2448 16.7042 12.2915 16.6558 12.3232 16.5978L13.472 14.4973C13.7086 14.0645 14.0645 13.7086 14.4973 13.472L16.5978 12.3232C16.6558 12.2915 16.7042 12.2448 16.738 12.1879C16.7717 12.131 16.7895 12.0661 16.7895 12C16.7895 11.9339 16.7717 11.869 16.738 11.8121C16.7042 11.7552 16.6558 11.7085 16.5978 11.6768L14.4973 10.528C14.0645 10.2914 13.7086 9.93553 13.472 9.50273L12.3233 7.4022C12.2915 7.34418 12.2448 7.29576 12.1879 7.26204C12.131 7.22831 12.0661 7.21052 12 7.21052ZM10.6847 5.36061C11.0829 5.12456 11.5372 5 12 5C12.4628 5 12.9172 5.12456 13.3153 5.36061C13.7134 5.59666 14.0407 5.9355 14.2627 6.34158L15.4114 8.44212C15.4452 8.50395 15.4961 8.55478 15.5579 8.58859L17.6584 9.73729C18.0645 9.95936 18.4033 10.2866 18.6394 10.6847C18.8754 11.0829 19 11.5372 19 12C19 12.4628 18.8754 12.9171 18.6394 13.3153C18.4033 13.7134 18.0645 14.0406 17.6584 14.2627L15.5579 15.4114C15.4961 15.4452 15.4452 15.4961 15.4114 15.5579L14.2627 17.6584C14.0407 18.0645 13.7134 18.4033 13.3153 18.6394C12.9171 18.8754 12.4628 19 12 19C11.5371 19 11.0828 18.8754 10.6847 18.6394C10.2866 18.4033 9.95934 18.0645 9.73727 17.6584L8.58857 15.5579C8.55476 15.4961 8.50392 15.4452 8.4421 15.4114L6.34158 14.2627C5.9355 14.0406 5.59665 13.7134 5.36061 13.3153C5.12456 12.9171 5 12.4628 5 12C5 11.5372 5.12456 11.0829 5.36061 10.6847C5.59665 10.2866 5.93549 9.95936 6.34157 9.7373L8.4421 8.58859C8.50391 8.55479 8.55477 8.50395 8.58858 8.44213L9.73728 6.3416C9.95935 5.93551 10.2866 5.59666 10.6847 5.36061Z" fill="#06131A"/>
<path d="M12 7.21052C11.9339 7.21052 11.869 7.22831 11.8121 7.26204C11.7552 7.29576 11.7085 7.34417 11.6768 7.40218L10.528 9.50272C10.2914 9.93552 9.93552 10.2914 9.50272 10.528L7.40219 11.6768C7.34418 11.7085 7.29576 11.7552 7.26204 11.8121C7.22832 11.869 7.21052 11.9339 7.21052 12C7.21052 12.0661 7.22832 12.131 7.26204 12.1879C7.29576 12.2448 7.34417 12.2915 7.40218 12.3232L9.50272 13.472C9.93551 13.7086 10.2913 14.0645 10.528 14.4973L11.6767 16.5978C11.7085 16.6558 11.7552 16.7042 11.8121 16.738C11.869 16.7717 11.9339 16.7895 12 16.7895C12.0661 16.7895 12.131 16.7717 12.1879 16.738C12.2448 16.7042 12.2915 16.6558 12.3232 16.5978L13.472 14.4973C13.7086 14.0645 14.0645 13.7086 14.4973 13.472L16.5978 12.3232C16.6558 12.2915 16.7042 12.2448 16.738 12.1879C16.7717 12.131 16.7895 12.0661 16.7895 12C16.7895 11.9339 16.7717 11.869 16.738 11.8121C16.7042 11.7552 16.6558 11.7085 16.5978 11.6768L14.4973 10.528C14.0645 10.2914 13.7086 9.93553 13.472 9.50273L12.3233 7.4022C12.2915 7.34418 12.2448 7.29576 12.1879 7.26204C12.131 7.22831 12.0661 7.21052 12 7.21052ZM10.6847 5.36061C11.0829 5.12456 11.5372 5 12 5C12.4628 5 12.9172 5.12456 13.3153 5.36061C13.7134 5.59666 14.0407 5.9355 14.2627 6.34158L15.4114 8.44212C15.4452 8.50395 15.4961 8.55478 15.5579 8.58859L17.6584 9.73729C18.0645 9.95936 18.4033 10.2866 18.6394 10.6847C18.8754 11.0829 19 11.5372 19 12C19 12.4628 18.8754 12.9171 18.6394 13.3153C18.4033 13.7134 18.0645 14.0406 17.6584 14.2627L15.5579 15.4114C15.4961 15.4452 15.4452 15.4961 15.4114 15.5579L14.2627 17.6584C14.0407 18.0645 13.7134 18.4033 13.3153 18.6394C12.9171 18.8754 12.4628 19 12 19C11.5371 19 11.0828 18.8754 10.6847 18.6394C10.2866 18.4033 9.95934 18.0645 9.73727 17.6584L8.58857 15.5579C8.55476 15.4961 8.50392 15.4452 8.4421 15.4114L6.34158 14.2627C5.9355 14.0406 5.59665 13.7134 5.36061 13.3153C5.12456 12.9171 5 12.4628 5 12C5 11.5372 5.12456 11.0829 5.36061 10.6847C5.59665 10.2866 5.93549 9.95936 6.34157 9.7373L8.4421 8.58859C8.50391 8.55479 8.55477 8.50395 8.58858 8.44213L9.73728 6.3416C9.95935 5.93551 10.2866 5.59666 10.6847 5.36061Z" stroke="black"/>
</svg>
