<svg width="15" height="12" viewBox="0 0 15 12" fill="none" xmlns="http://www.w3.org/2000/svg">
<path d="M14.3871 1.3963C14.3871 1.3963 13.825 2.3053 12.9149 2.92021C13.1023 7.09093 10.051 11.7161 4.51047 11.7161C3.66158 11.7161 2.88312 11.6201 2.17507 11.4281L2.17507 11.4282C1.86323 11.3436 1.67898 11.0223 1.76354 10.7104C1.81771 10.5107 1.97339 10.3544 2.17294 10.2995C2.89638 10.1004 3.62203 9.72599 4.34988 9.17628C3.1853 9.10621 2.36826 8.66695 1.89876 7.85851L1.89879 7.85849C1.77399 7.6436 1.84703 7.36821 2.06193 7.24341C2.12373 7.20752 2.19319 7.18687 2.26456 7.18316C2.47864 7.17204 2.70089 7.13238 2.93129 7.06419C1.57155 6.72829 0.792839 6.00947 0.595161 4.90772L0.595099 4.90773C0.551202 4.66308 0.71395 4.42916 0.958607 4.38526C1.02708 4.37297 1.09748 4.37673 1.16426 4.39623C1.39565 4.46381 1.63671 4.4976 1.88743 4.4976C0.626076 3.52266 0.211366 2.43413 0.643295 1.232L0.643235 1.23198C0.727284 0.998058 0.98505 0.876562 1.21897 0.960611C1.29199 0.986846 1.35698 1.03151 1.40765 1.09027C2.75003 2.64721 4.64081 3.49781 7.07999 3.64207C6.49114 0.40709 10.2116 -1.09009 12.112 0.941797C13.1023 0.781385 14.0123 0.219942 14.0123 0.219942C14.0123 0.219942 13.6911 1.31609 12.7008 1.8508C13.5038 1.79733 14.3871 1.3963 14.3871 1.3963Z" fill="#88FFF0"/>
</svg>
