<svg width="19" height="17" viewBox="0 0 19 17" fill="none" xmlns="http://www.w3.org/2000/svg">
<path d="M18.6001 2.30548C18.6001 2.30548 17.8506 3.51748 16.6372 4.33736C16.887 9.89832 12.8186 16.0653 5.43128 16.0653C4.29943 16.0653 3.26147 15.9373 2.31741 15.6813L2.3174 15.6813C1.90162 15.5686 1.65596 15.1401 1.76871 14.7243C1.84093 14.458 2.0485 14.2496 2.31457 14.1764C3.27916 13.9109 4.24669 13.4117 5.21716 12.6788C3.66439 12.5854 2.575 11.9997 1.949 10.9218L1.94904 10.9217C1.78264 10.6352 1.88002 10.268 2.16655 10.1016C2.24895 10.0538 2.34157 10.0262 2.43673 10.0213C2.72217 10.0065 3.0185 9.95359 3.32571 9.86267C1.51272 9.41481 0.474436 8.45637 0.210866 6.98737L0.210782 6.98739C0.152254 6.66118 0.369251 6.34929 0.69546 6.29076C0.786763 6.27438 0.88062 6.27939 0.969661 6.30539C1.27818 6.39549 1.59959 6.44054 1.93389 6.44054C0.252086 5.14063 -0.300861 3.68926 0.275044 2.08641L0.274965 2.08639C0.38703 1.77449 0.730717 1.6125 1.04261 1.72456C1.13997 1.75954 1.22663 1.8191 1.29418 1.89744C3.08403 3.97336 5.60507 5.10749 8.85731 5.29984C8.07218 0.986532 13.0328 -1.00971 15.5666 1.69948C16.887 1.48559 18.1004 0.737003 18.1004 0.737003C18.1004 0.737003 17.6722 2.19854 16.3517 2.91148C17.4224 2.84018 18.6001 2.30548 18.6001 2.30548Z" fill="#06131A"/>
</svg>
